<svg width="354" height="312" viewBox="0 0 354 312" fill="none" xmlns="http://www.w3.org/2000/svg">
<path d="M338.238 250.163C339.035 245.419 338.619 239.114 338.723 229.57C338.792 224.016 340.732 223.901 346.379 233.445C348.873 237.668 353.48 238.362 353.48 238.362C354.035 220.661 349.462 215.455 342.153 208.572C335.709 202.556 329.439 200.358 332.315 193.647C333.25 191.449 337.58 194.978 339.797 196.424C352.857 205.043 354 198.391 354 198.391C354 198.391 353.134 181.5 339.901 173.748C333.527 170.046 322.684 167.385 322.823 162.006C322.961 154.949 328.989 157.609 332.522 159.056C350.397 166.229 352.025 161.659 352.025 161.659C352.025 161.659 348.388 137.19 331.552 132.331C323.238 129.959 308.412 127.761 307.685 121.167C306.922 114.167 323.065 118.159 329.509 119.894C338.481 122.323 341.079 118.448 341.079 118.448C341.079 118.448 337.199 95.5987 318.215 92.88C304.22 90.9132 295.11 94.0369 292.858 88.1366C290.849 82.7569 303.77 81.4265 316.241 82.9883C326.044 84.2031 331.345 83.7982 331.345 83.7982C331.345 83.7982 327.603 60.602 307.061 58.2303C286.623 55.8586 267.778 64.8826 270.133 58.1724C272.627 51.1152 280.837 50.0162 291.23 49.1485C296.53 48.7436 303.077 49.0328 306.541 48.2808C314.647 46.5454 317.142 41.0501 317.142 41.0501C317.142 41.0501 308.551 27.572 296.08 23.9277C285.098 20.7462 275.884 23.2914 262.962 28.3818C255.861 31.1584 247.339 35.2076 244.949 31.8526C243.39 29.7123 249.452 23.465 255.896 20.8619C261.23 18.7216 271.45 17.1019 278.586 16.1185C283.089 15.5401 285.999 13.0527 285.999 13.0527C285.999 13.0527 284.128 10.5075 280.768 7.67305C274.533 2.40908 263.932 -2.27645 253.644 1.1943C247.443 3.27675 242.767 5.18565 237.848 11.4909C232.79 17.9696 229.915 23.9855 223.748 23.6385C217.582 23.3492 214.049 19.1265 202.964 25.316C198.149 28.0348 188.449 39.7196 180.793 54.4703C172.826 69.8573 174.489 84.2031 174.489 84.2031C174.489 84.2031 182.872 88.368 191.324 80.5009C203.206 69.4524 217.409 37.7529 223.471 38.9098C230.711 40.2981 220.7 52.4457 215.989 60.8912C205.354 79.8646 200.4 96.7556 198.98 110.986C197.698 123.885 200.747 130.133 200.747 130.133C200.747 130.133 211.589 127.53 216.231 116.828C222.952 101.268 230.122 86.6326 234.799 75.8154C240.55 62.5109 243.875 58.1724 246.785 56.09C252.466 52.0408 257.004 54.8174 248.794 70.4936C238.991 89.1778 230.607 109.655 228.425 124.059C226.312 137.884 230.4 149.627 230.4 149.627C230.4 149.627 240.446 143.784 244.88 134.298C253.748 115.266 256.692 104.333 261.473 92.475C265.214 83.1619 269.544 75.6997 273.771 77.7243C278.309 79.9225 273.597 89.0621 267.986 102.945C263.205 114.688 257.801 131.695 256.311 144.131C254.337 160.791 257.351 168.889 257.351 168.889C257.351 168.889 269.406 165.65 272.974 156.51C276.057 148.701 281.807 128.86 285.826 119.605C289.151 111.911 292.096 102.135 296.184 106.185C298.331 108.325 296.218 116.423 291.68 128.744C288.181 138.231 284.198 150.784 282.292 161.312C280.318 172.187 283.124 184.219 283.124 184.219C283.124 184.219 292.997 184.971 297.015 172.187C300.375 161.543 303.354 152.519 305.779 146.04C310.975 132.215 314.162 141.875 310.283 154.023C306.16 166.923 303.285 175.542 301.276 188.094C300.029 195.903 302.315 206.374 302.315 206.374C302.315 206.374 308.516 207.068 312.049 199.548C318.25 186.359 318.077 176.756 321.714 182.194C324.312 186.127 318.319 199.953 315.063 210.018C311.807 220.141 313.262 231.826 313.262 231.826C313.262 231.826 320.918 236.338 324.243 225.173C330.271 205.043 333.077 212.852 331.448 221.992C330.929 225 328.469 238.247 327.95 241.312C325.074 257.567 330.444 264.509 330.444 264.509C330.444 264.509 336.368 261.154 338.238 250.163ZM26.3274 267.401C25.3575 264.219 23.1751 256.989 26.4314 254.154C30.138 250.857 31.5236 260.98 34.9185 266.938C40.7036 277.003 45.8998 272.376 45.8998 272.376C45.8998 272.376 49.7796 263.12 46.5233 249.931C43.371 237.205 36.5813 228.355 39.3179 222.339C40.8422 218.984 45.2416 216.439 51.1653 235.239C56.6386 252.592 65.3336 249.353 65.3336 249.353C65.3336 249.353 71.3612 237.032 67.031 218.29C64.0172 205.332 57.7471 194.052 59.0981 187.747C60.7263 180.111 64.7447 180.401 68.6592 191.739C71.1187 198.796 73.5782 207.473 76.696 214.414C82.7235 227.95 91.3146 226.909 91.3146 226.909C91.3146 226.909 95.7833 214.183 92.2846 195.614C90.5179 186.243 88.6819 178.723 84.5595 165.534C82.5157 159.056 78.8784 150.147 81.6497 144.768C84.3171 139.619 88.1622 146.098 91.3146 154.023C98.8318 172.939 99.1089 178.492 102.919 188.557C108.497 203.192 120.483 202.614 120.483 202.614C120.483 202.614 125.021 187.747 123.254 172.996C121.072 155.064 118.473 142.222 112.273 125.968C109.501 118.737 106.349 109.424 108.878 106.589C111.303 103.929 115.044 106.763 119.513 118.101C125.575 133.43 130.286 148.354 134.512 161.08C139.466 176.004 151.556 178.434 151.556 178.434C151.556 178.434 156.406 169.815 152.145 143.437C148.889 123.307 144.385 110.639 141.441 101.557C137.803 90.4504 131.464 83.0462 135.517 79.9804C139.258 77.1459 144.177 84.4923 149.547 98.5489C155.089 113.068 156.475 124.117 162.953 139.099C168.253 151.42 180.689 149.511 180.689 149.511C180.689 149.511 182.421 137.711 181.07 126.199C179.685 114.225 175.285 100.4 168.357 87.1532C152.872 57.5362 143 69.7995 142.03 64.2463C141.579 61.6432 142.445 53.6605 138.635 42.6698C133.161 26.9357 119.79 12.1272 104.686 12.3585C98.6239 12.4742 87.7812 15.5979 82.9314 21.2668C82.9314 21.2668 83.4857 30.1172 90.0329 34.9184C97.7579 40.6452 113.243 45.6777 119.824 55.8586C124.189 62.5687 126.926 70.4358 122.249 67.2542C120.309 65.9238 113.693 58.1146 106.765 54.0075C99.5246 49.7269 92.2153 47.8759 83.5203 47.4131C70.5298 46.719 60.4145 55.7429 60.4145 55.7429C60.4145 55.7429 61.1073 61.2961 68.7631 67.8327C73.3704 71.7662 87.608 75.2948 93.0467 79.749C97.5154 83.3932 101.499 85.9963 98.9703 90.219C97.3768 92.88 94.8827 92.0123 92.8042 90.6818C83.1739 84.4345 68.4167 81.2529 60.5531 80.7323C49.6411 80.0382 41.8121 92.0123 41.8121 92.0123C41.8121 92.0123 41.7428 101.904 49.6757 106.358C61.1766 112.779 78.1855 111.622 82.0654 118.911C85.8413 126.083 76.4188 127.24 67.6892 124.522C58.2321 121.514 53.3477 120.588 36.7545 124.753C25.5307 127.53 19.8495 140.487 19.8495 140.487C19.8495 140.487 22.8633 151.593 28.9255 152.577C41.0154 154.601 66.4421 150.957 64.5715 159.229C62.8741 166.691 57.5739 166.113 52.1352 165.477C42.2278 164.377 33.4289 163.568 23.9718 167.27C12.6095 171.724 8.6257 187.458 8.6257 187.458C8.6257 187.458 11.4663 195.614 18.1867 195.788C30.519 196.135 45.8652 189.02 48.9829 193.705C53.3823 200.358 43.371 202.845 38.0362 203.25C31.3504 203.77 19.0874 205.274 12.263 210.885C3.22164 218.29 2.35561 229.975 2.35561 229.975C2.35561 229.975 4.33017 235.991 13.5794 234.834C16.0389 234.544 25.0803 229.685 28.5791 230.784C34.1217 232.578 29.3759 238.189 23.2443 240.85C21.443 241.602 13.7526 244.552 10.3924 247.618C6.89363 250.799 1.24709 253.981 0 271.913C0 271.913 3.7759 274.632 10.8081 271.045C14.099 269.368 17.0089 265.55 18.7063 268.326C20.3691 271.103 16.42 279.201 15.9697 287.531C14.9997 304.596 20.958 312 20.958 312C20.958 312 27.7131 304.885 28.8562 291.291C29.9648 276.888 27.0895 269.946 26.3274 267.401Z" fill="#A1D65C" fill-opacity="0.4"/>
</svg>
