<svg width="23" height="35" viewBox="0 0 23 35" fill="none" xmlns="http://www.w3.org/2000/svg">
<path d="M11.2608 21.548C10.9482 21.548 10.6982 21.298 10.6982 20.9854V18.6026L7.66026 17.6937L5.52246 15.8684L10.6982 17.4187V17.0736C10.6982 15.8234 11.0482 14.5858 11.7483 13.5356C11.9575 13.2189 12.1305 12.8855 12.2672 12.5355L9.49677 11.7066L6.27132 9.55504L12.5647 11.4416C12.6122 11.1515 12.636 10.8577 12.636 10.5602V7.93481H13.7611V10.5602C13.7611 10.7052 13.7561 10.8494 13.7461 10.9927L18.5981 9.54254L14.845 11.8491L13.5436 12.2367C13.3661 12.9078 13.0802 13.5455 12.6972 14.1244C12.1221 14.9996 11.8221 16.0247 11.8221 17.0749V18.315L16.9853 16.7673L13.8149 18.9026L11.8234 19.4989V20.9867C11.8234 21.2992 11.5733 21.548 11.2608 21.548Z" fill="white"/>
<path d="M13.0137 0.0900692C10.7233 2.75295 10.6558 7.14356 12.8661 9.9027C12.9687 10.0252 13.1374 10.039 13.2387 9.91521C15.529 7.25233 15.5965 2.86296 13.3862 0.103821C13.2837 -0.0324482 13.1149 -0.0336983 13.0137 0.0900692ZM4.57248 11.9092L0.196859 10.5966C-0.540745 13.0594 0.859452 15.6473 3.3098 16.3974L7.68542 17.7101C8.43552 15.2472 7.03532 12.6468 4.57248 11.9092ZM21.2998 11.7967L16.9242 13.1094C14.4614 13.8595 13.0612 16.4474 13.8113 18.9102L18.1869 17.5975C20.6372 16.8474 22.0374 14.2596 21.2998 11.7967ZM6.41024 5.92089L2.03462 4.60821C1.30952 7.07105 2.69721 9.65892 5.16006 10.409L9.53568 11.7217C9.88938 10.538 9.75892 9.26235 9.17294 8.17476C8.58695 7.08717 7.59334 6.27656 6.41024 5.92089ZM22.325 4.74573L17.9494 6.05841C17.3628 6.23294 16.8166 6.52181 16.3422 6.90837C15.8679 7.29494 15.4746 7.77156 15.1853 8.31077C14.8959 8.84998 14.7161 9.44113 14.6563 10.0501C14.5964 10.6592 14.6576 11.274 14.8364 11.8592L19.212 10.5465C21.6624 9.79644 23.0626 7.20857 22.325 4.74573Z" fill="white"/>
<path d="M18.7519 22.5033C16.5887 20.8787 13.9561 20.0011 11.2508 20.0029C8.43667 20.0029 5.8313 20.9406 3.74976 22.5033L11.2508 24.9649L18.7519 22.5033Z" fill="white"/>
<path d="M2.5083 27.499L3.48344 33.3623C3.64596 34.3125 4.45858 35.0001 5.40871 35.0001H17.0979C18.048 35.0001 18.8731 34.3125 19.0231 33.3623L20.0108 27.499L11.2595 25.5112L2.5083 27.499Z" fill="white"/>
<path d="M20.6272 27.5036H1.8746C1.52455 27.5036 1.24951 27.2286 1.24951 26.8785V23.128C1.24951 22.778 1.52455 22.5029 1.8746 22.5029H20.6272C20.9773 22.5029 21.2523 22.778 21.2523 23.128V26.8785C21.2523 27.2286 20.9773 27.5036 20.6272 27.5036Z" fill="white"/>
</svg>
