<svg width="79" height="64" viewBox="0 0 79 64" fill="none" xmlns="http://www.w3.org/2000/svg">
<path d="M49.5929 0L0 0.496441C0 55.2155 52.6667 63.1179 79 63.2888V33.0139C79 9.49658 64 0.496511 49.5929 0Z" fill="#E4F2E2"/>
<path opacity="0.5" d="M64.1474 32.9181C66.4274 30.6141 66.1978 27.6553 66.1906 27.6216V18.6216C66.1906 18.3232 66.0633 18.0371 65.8367 17.8261C65.6101 17.6151 65.3028 17.4966 64.9823 17.4966H57.7327C56.3999 17.4966 55.3161 18.5057 55.3161 19.7466V27.6216C55.3161 27.92 55.4434 28.2061 55.67 28.4171C55.8966 28.6281 56.2039 28.7466 56.5244 28.7466H60.2435C60.2179 29.3028 60.0394 29.8435 59.7251 30.3171C59.1113 31.2182 57.955 31.8336 56.2863 32.1441L55.3161 32.3241V35.4966H56.5244C59.887 35.4966 62.4522 34.6292 64.1474 32.9181ZM50.8479 32.9181C53.1291 30.6141 52.8983 27.6553 52.8911 27.6216V18.6216C52.8911 18.3232 52.7638 18.0371 52.5372 17.8261C52.3106 17.6151 52.0033 17.4966 51.6828 17.4966H44.4332C43.1004 17.4966 42.0166 18.5057 42.0166 19.7466V27.6216C42.0166 27.92 42.1439 28.2061 42.3705 28.4171C42.5971 28.6281 42.9044 28.7466 43.2249 28.7466H46.944C46.9184 29.3028 46.7399 29.8435 46.4256 30.3171C45.8118 31.2182 44.6555 31.8336 42.9868 32.1441L42.0166 32.3241V35.4966H43.2249C46.5875 35.4966 49.1527 34.6292 50.8479 32.9181Z" fill="#266937"/>
</svg>
