<svg width="310" height="313" viewBox="0 0 310 313" fill="none" xmlns="http://www.w3.org/2000/svg">
<path d="M256.829 4.29547C260.916 6.83138 265.374 11.3094 272.607 17.5376C276.822 21.1546 278.19 19.7748 274.756 9.23011C273.234 4.56787 275.758 0.65081 275.758 0.65081C289.411 11.9299 290.297 18.8021 290.635 28.8368C290.894 37.6483 288.401 43.8072 295.338 46.0823C297.606 46.8326 297.818 41.2508 298.197 38.6311C300.356 23.1332 306.105 26.6704 306.105 26.6704C306.105 26.6704 318.212 38.4805 315.287 53.5351C313.855 60.7657 308.688 70.6628 312.818 74.1132C318.207 78.672 320.192 72.3893 321.441 68.7815C327.867 50.6246 332.373 52.4218 332.373 52.4218C332.373 52.4218 348.337 71.3189 340.861 87.1669C337.148 94.9747 329.002 107.556 333.472 112.459C338.222 117.656 345.892 102.901 348.846 96.9183C352.951 88.5782 357.576 89.1887 357.576 89.1887C357.576 89.1887 372.164 107.198 361.663 123.244C353.892 135.049 345.528 139.824 348.469 145.412C351.18 150.475 360.716 141.655 367.783 131.261C373.348 123.1 377.154 119.389 377.154 119.389C377.154 119.389 392.094 137.523 380.302 154.51C368.579 171.419 349.354 179.603 355.947 182.268C362.892 185.058 369.142 179.622 376.66 172.394C380.465 168.683 384.574 163.577 387.427 161.474C394.086 156.536 399.859 158.294 399.859 158.294C399.859 158.294 404.3 173.648 398.796 185.417C393.928 195.762 385.93 200.998 373.571 207.334C366.795 210.83 358.125 214.551 359.064 218.562C359.641 221.146 368.336 220.723 374.547 217.607C379.678 215.016 387.646 208.415 393.099 203.709C396.509 200.71 400.298 200.169 400.298 200.169C400.298 200.169 400.973 203.255 400.881 207.65C400.712 215.809 397.226 226.862 387.823 232.291C382.162 235.57 377.64 237.819 369.657 237.346C361.452 236.862 355.036 235.045 351.223 239.903C347.366 244.723 348.201 250.165 336.231 254.397C331.009 256.215 315.829 255.775 299.698 251.776C282.884 247.591 273.214 236.864 273.214 236.864C273.214 236.864 275.626 227.819 287.116 226.672C303.26 225.053 336.439 235.336 339.576 230.021C343.318 223.669 327.585 223.158 318.132 221.115C296.864 216.562 280.912 209.12 269.292 200.784C258.762 193.223 256.086 186.807 256.086 186.807C256.086 186.807 265.204 180.388 276.304 183.974C292.425 189.211 308.148 193.498 319.358 197.134C333.144 201.608 338.598 201.978 342.084 201.17C348.877 199.581 349.791 194.34 332.599 190.145C312.097 185.159 291.187 177.922 278.933 170.044C267.159 162.496 261.045 151.669 261.045 151.669C261.045 151.669 272.068 147.988 282.119 150.927C302.264 156.845 312.416 161.858 324.476 166.105C333.939 169.45 342.401 171.129 343.674 166.619C345.022 161.761 335.049 159.258 320.92 154.298C308.947 150.128 292.61 142.948 282.29 135.849C268.48 126.324 264.393 118.711 264.393 118.711C264.393 118.711 274.789 111.802 284.007 115.163C291.906 118.008 310.599 126.801 320.202 129.899C328.174 132.486 337.458 136.735 337.119 130.991C336.931 127.965 329.456 124.201 317.209 119.466C307.776 115.825 295.722 110.521 286.56 104.996C277.092 99.2926 269.915 89.2366 269.915 89.2366C269.915 89.2366 275.873 81.3289 288.124 86.759C298.334 91.2691 307.076 94.995 313.542 97.4553C327.352 102.689 322.207 93.9144 310.525 88.8007C298.118 83.3721 289.749 79.8357 278.999 73.0503C272.313 68.8268 265.964 60.1929 265.964 60.1929C265.964 60.1929 269.54 55.0797 277.519 57.3958C291.516 61.4553 298.61 67.9297 296.932 61.6067C295.695 57.0576 281.358 52.4217 271.651 48.2159C261.901 43.9718 254.091 35.1593 254.091 35.1593C254.091 35.1593 255.763 26.4315 266.34 31.3115C285.433 40.0873 281.425 32.8214 273.489 28.0049C270.888 26.4076 259.319 19.5016 256.675 17.866C242.573 9.28462 240.911 0.667813 240.911 0.667813C240.911 0.667813 247.343 -1.56203 256.829 4.29547ZM37.8066 227.039C39.5539 229.869 43.5396 236.285 47.8188 235.713C52.7428 235.109 46.0595 227.381 43.8301 220.896C40.0971 209.903 47.004 209.06 47.004 209.06C47.004 209.06 56.5149 212.263 64.2635 223.421C71.7334 234.196 73.8909 245.14 80.2149 247.061C83.7404 248.133 88.5577 246.513 78.3595 229.645C68.9494 214.07 77.1258 209.684 77.1258 209.684C77.1258 209.684 90.3571 213.3 101.565 228.934C109.3 239.757 113.624 251.916 119.25 255.068C126.057 258.891 128.495 255.683 122.571 245.254C118.898 238.745 114.01 231.166 110.86 224.239C104.682 210.771 111.139 205.011 111.139 205.011C111.139 205.011 123.645 210.064 135.271 224.959C141.138 232.477 145.57 238.824 152.746 250.632C156.259 256.447 160.543 265.063 166.412 266.537C172.039 267.936 169.716 260.769 165.85 253.167C156.618 235.027 152.633 231.149 147.595 221.639C140.294 207.783 148.648 199.168 148.648 199.168C148.648 199.168 162.806 205.584 172.711 216.656C184.729 230.142 192.652 240.577 200.757 255.971C204.354 262.829 209.262 271.349 213.06 271.323C216.66 271.261 217.004 266.58 211.446 255.735C203.945 241.056 195.855 227.659 189.094 216.078C181.164 202.499 187.329 191.819 187.329 191.819C187.329 191.819 197.003 193.873 213.988 214.499C226.947 230.244 233.481 241.995 238.352 250.205C244.286 260.274 245.656 269.924 250.635 268.908C255.234 267.972 252.97 259.426 245.966 246.108C238.729 232.354 231.351 224.014 224.385 209.253C218.638 197.134 228.288 189.06 228.288 189.06C228.288 189.06 238.29 195.556 246.039 204.176C254.111 213.128 261.582 225.565 266.948 239.517C278.949 270.709 263.221 270.018 266.748 274.415C268.405 276.473 274.969 281.097 280.702 291.219C288.896 305.723 291.177 325.544 281.024 336.729C276.932 341.203 267.423 347.278 259.964 347.173C259.964 347.173 253.686 340.91 254.408 332.823C255.214 323.24 261.667 308.292 258.373 296.625C256.22 288.915 252.123 281.663 251.421 287.275C251.138 289.61 252.629 299.737 251.134 307.651C249.564 315.914 246.124 322.623 240.726 329.456C232.664 339.666 219.207 341.297 219.207 341.297C219.207 341.297 215.497 337.107 215.648 327.042C215.74 320.985 222.498 307.966 222.748 300.94C222.965 295.178 223.643 290.468 218.802 289.576C215.752 289.014 214.756 291.46 214.381 293.899C212.708 305.256 205.346 318.435 200.541 324.682C193.852 333.331 179.691 331.297 179.691 331.297C179.691 331.297 172.22 324.813 174.118 315.916C176.897 303.04 189.004 291.037 186.096 283.309C183.207 275.735 176.113 282.044 172.386 290.393C168.395 299.479 165.863 303.757 151.773 313.461C142.273 320.052 128.793 315.755 128.793 315.755C128.793 315.755 122.448 306.155 125.715 300.954C132.183 290.541 151.718 273.863 144.273 269.802C137.55 266.146 134.482 270.506 131.367 275.009C125.646 283.172 120.44 290.312 111.413 294.965C100.562 300.551 86.1193 293.146 86.1193 293.146C86.1193 293.146 81.8737 285.625 86.1837 280.465C94.0712 270.979 109.551 264.16 108.094 258.724C106.007 251.027 97.5258 256.898 93.6971 260.635C88.8889 265.31 79.6576 273.521 70.9368 274.937C59.4051 276.831 50.0618 269.761 50.0618 269.761C50.0618 269.761 46.8506 264.304 53.8301 258.126C55.6723 256.471 65.2934 252.894 66.7801 249.542C69.0961 244.196 61.7485 244.052 55.7 246.896C53.9453 247.751 46.6497 251.575 42.1283 252.072C37.4284 252.596 31.3095 254.732 17.0249 243.82C17.0249 243.82 17.4788 239.19 24.8172 236.281C28.2508 234.919 33.0392 235.257 32.0765 232.148C31.0909 229.066 22.4026 226.679 15.8524 221.514C2.40222 210.967 0.781019 201.602 0.781019 201.602C0.781019 201.602 10.585 201.233 21.5443 209.356C33.0887 218.041 36.3996 224.785 37.8066 227.039Z" fill="#A1D65C" fill-opacity="0.4"/>
</svg>
